<?xml version="1.0" encoding="utf-8"?>
<!-- Generator: Adobe Illustrator 26.4.1, SVG Export Plug-In . SVG Version: 6.00 Build 0)  -->
<svg version="1.1" id="Layer_1" xmlns="http://www.w3.org/2000/svg" xmlns:xlink="http://www.w3.org/1999/xlink" x="0px" y="0px"
	 viewBox="0 0 200 200" style="enable-background:new 0 0 200 200;" xml:space="preserve">
<style type="text/css">
	.st0{fill:#EC008C;}
	.st1{fill:#39B54A;}
</style>
<rect class="st0" width="200" height="200"/>
<g>
	<g>
		<path class="st1" d="M167.91,31.34c-1.51-1.29-3.51-1.86-5.48-1.55L76.26,43.39c-3.31,0.52-5.74,3.37-5.74,6.72v27.21v43.08H56.92
			c-15,0-27.21,11.19-27.21,24.94c0,13.75,12.21,24.94,27.21,24.94s27.21-11.19,27.21-24.94v-18.14V83.14l72.56-11.46v37.39h-13.61
			c-15,0-27.21,11.19-27.21,24.94s12.21,24.94,27.21,24.94s27.21-11.19,27.21-24.94v-18.14V63.72V36.51
			C170.29,34.52,169.42,32.63,167.91,31.34z"/>
	</g>
</g>
</svg>
